<svg width="20" height="21" viewBox="0 0 20 21" fill="none" xmlns="http://www.w3.org/2000/svg">
<path d="M10.5 13.252V15.3414C9.8744 15.1203 9.2013 15 8.5 15C5.18629 15 2.5 17.6863 2.5 21H0.5C0.5 16.5817 4.08172 13 8.5 13C9.1906 13 9.8608 13.0875 10.5 13.252ZM8.5 12C5.185 12 2.5 9.315 2.5 6C2.5 2.685 5.185 0 8.5 0C11.815 0 14.5 2.685 14.5 6C14.5 9.315 11.815 12 8.5 12ZM8.5 10C10.71 10 12.5 8.21 12.5 6C12.5 3.79 10.71 2 8.5 2C6.29 2 4.5 3.79 4.5 6C4.5 8.21 6.29 10 8.5 10ZM14.5 16V13H16.5V16H19.5V18H16.5V21H14.5V18H11.5V16H14.5Z" fill="black" fill-opacity="0.72"/>
</svg>
