<svg width="12" height="15" viewBox="0 0 12 15" fill="none" xmlns="http://www.w3.org/2000/svg">
<path d="M6 14.8212L1.75736 10.5786C-0.585787 8.2354 -0.585787 4.43644 1.75736 2.0933C4.10051 -0.249849 7.89947 -0.249849 10.2427 2.0933C12.5858 4.43644 12.5858 8.2354 10.2427 10.5786L6 14.8212ZM9.2998 9.63574C11.1223 7.81334 11.1223 4.85855 9.2998 3.0361C7.4774 1.21366 4.52261 1.21366 2.70017 3.0361C0.87772 4.85855 0.87772 7.81334 2.70017 9.63574L6 12.9356L9.2998 9.63574ZM6 7.66927C5.2636 7.66927 4.66667 7.07234 4.66667 6.33594C4.66667 5.59956 5.2636 5.0026 6 5.0026C6.7364 5.0026 7.33333 5.59956 7.33333 6.33594C7.33333 7.07234 6.7364 7.66927 6 7.66927Z" fill="black" fill-opacity="0.72"/>
</svg>
