<svg width="226" height="48" viewBox="0 0 226 48" fill="none" xmlns="http://www.w3.org/2000/svg">
<path d="M18.4565 31L14.002 34.5V16C14.002 15.4477 14.4497 15 15.002 15H33.002C33.5543 15 34.002 15.4477 34.002 16V30C34.002 30.5523 33.5543 31 33.002 31H18.4565ZM17.7648 29H32.002V17H16.002V30.3851L17.7648 29ZM23.2949 24.1213L27.5375 19.8787L28.9517 21.2929L23.2949 26.9497L19.4058 23.0607L20.82 21.6465L23.2949 24.1213Z" fill="white"/>
<path d="M62.328 30L62.328 18.8H64.312L67.832 23.984L71.32 18.8H73.32V30H71.464V21.728L67.816 27.12L64.184 21.76V30H62.328ZM76.7366 33.392C76.4806 33.392 76.1926 33.344 75.8726 33.248C75.5633 33.152 75.2646 33.0293 74.9766 32.88L75.6486 31.424C75.8513 31.52 76.038 31.5947 76.2086 31.648C76.3793 31.712 76.518 31.744 76.6246 31.744C76.8806 31.744 77.094 31.6747 77.2646 31.536C77.446 31.408 77.59 31.216 77.6966 30.96L78.6406 28.752L81.3446 22H83.2966L79.5846 30.848C79.3606 31.36 79.1313 31.808 78.8966 32.192C78.6726 32.576 78.39 32.8693 78.0486 33.072C77.7073 33.2853 77.27 33.392 76.7366 33.392ZM78.1606 30L74.5766 22H76.5286L79.3126 28.736L79.8886 30H78.1606ZM95.9986 30L91.6306 18.8H93.4866L97.9666 30L95.9986 30ZM87.0546 30L91.5186 18.8H93.3906L89.0226 30H87.0546ZM89.1506 27.248V25.6H95.8546V27.248H89.1506ZM102.534 30.192C101.712 30.192 100.987 30.016 100.358 29.664C99.7282 29.3013 99.2322 28.8053 98.8695 28.176C98.5175 27.5467 98.3415 26.8213 98.3415 26C98.3415 25.1787 98.5175 24.4533 98.8695 23.824C99.2322 23.1947 99.7228 22.704 100.342 22.352C100.971 21.9893 101.691 21.808 102.502 21.808C103.291 21.808 104.006 22 104.646 22.384C105.286 22.7573 105.76 23.296 106.07 24L104.406 24.64C104.235 24.288 103.974 24.0053 103.622 23.792C103.27 23.5787 102.87 23.472 102.422 23.472C101.984 23.472 101.595 23.584 101.254 23.808C100.912 24.0213 100.646 24.32 100.454 24.704C100.262 25.0773 100.166 25.5093 100.166 26C100.166 26.4907 100.262 26.928 100.454 27.312C100.656 27.6853 100.928 27.984 101.27 28.208C101.622 28.4213 102.016 28.528 102.454 28.528C102.902 28.528 103.302 28.416 103.654 28.192C104.006 27.9573 104.267 27.6427 104.438 27.248L106.102 27.888C105.792 28.6133 105.318 29.1787 104.678 29.584C104.048 29.9893 103.334 30.192 102.534 30.192ZM110.517 30.192C109.674 30.192 109.029 29.984 108.581 29.568C108.143 29.1413 107.925 28.5333 107.925 27.744V19.504H109.701V27.408C109.701 27.7813 109.786 28.064 109.957 28.256C110.138 28.448 110.399 28.544 110.741 28.544C110.847 28.544 110.965 28.5227 111.093 28.48C111.221 28.4373 111.365 28.3573 111.525 28.24L112.181 29.6C111.903 29.792 111.626 29.936 111.349 30.032C111.071 30.1387 110.794 30.192 110.517 30.192ZM106.597 23.536V22L111.861 22V23.536L106.597 23.536ZM113.566 30V22H115.342V30H113.566ZM114.462 20.48C114.174 20.48 113.923 20.3787 113.71 20.176C113.507 19.9627 113.406 19.712 113.406 19.424C113.406 19.136 113.507 18.8907 113.71 18.688C113.923 18.4853 114.174 18.384 114.462 18.384C114.75 18.384 114.995 18.4853 115.198 18.688C115.411 18.8907 115.518 19.136 115.518 19.424C115.518 19.712 115.411 19.9627 115.198 20.176C114.995 20.3787 114.75 20.48 114.462 20.48ZM119.87 30L122.99 22H124.846L121.55 30H119.87ZM119.742 30L116.43 22H118.27L121.406 30H119.742ZM125.918 30V22H127.694V30L125.918 30ZM126.814 20.48C126.526 20.48 126.275 20.3787 126.062 20.176C125.859 19.9627 125.758 19.712 125.758 19.424C125.758 19.136 125.859 18.8907 126.062 18.688C126.275 18.4853 126.526 18.384 126.814 18.384C127.102 18.384 127.347 18.4853 127.55 18.688C127.763 18.8907 127.87 19.136 127.87 19.424C127.87 19.712 127.763 19.9627 127.55 20.176C127.347 20.3787 127.102 20.48 126.814 20.48ZM132.83 30.192C131.987 30.192 131.342 29.984 130.894 29.568C130.456 29.1413 130.238 28.5333 130.238 27.744V19.504H132.014V27.408C132.014 27.7813 132.099 28.064 132.27 28.256C132.451 28.448 132.712 28.544 133.054 28.544C133.16 28.544 133.278 28.5227 133.406 28.48C133.534 28.4373 133.678 28.3573 133.838 28.24L134.494 29.6C134.216 29.792 133.939 29.936 133.662 30.032C133.384 30.1387 133.107 30.192 132.83 30.192ZM128.91 23.536V22L134.174 22V23.536L128.91 23.536ZM137.031 33.392C136.775 33.392 136.487 33.344 136.167 33.248C135.858 33.152 135.559 33.0293 135.271 32.88L135.943 31.424C136.146 31.52 136.332 31.5947 136.503 31.648C136.674 31.712 136.812 31.744 136.919 31.744C137.175 31.744 137.388 31.6747 137.559 31.536C137.74 31.408 137.884 31.216 137.991 30.96L138.935 28.752L141.639 22H143.591L139.879 30.848C139.655 31.36 139.426 31.808 139.191 32.192C138.967 32.576 138.684 32.8693 138.343 33.072C138.002 33.2853 137.564 33.392 137.031 33.392ZM138.455 30L134.871 22H136.823L139.607 28.736L140.183 30H138.455Z" fill="white"/>
</svg>
