<svg width="24" height="24" viewBox="0 0 24 24" fill="none" xmlns="http://www.w3.org/2000/svg">
<path d="M7.05131 14.1209L4.92998 16.2423L7.75841 19.0707L19.0721 7.75694L16.2437 4.92851L14.1224 7.04983L15.5366 8.46405L14.1224 9.87826L12.7082 8.46405L11.294 9.87826L12.7082 11.2925L11.294 12.7067L9.87972 11.2925L8.46551 12.7067L9.87972 14.1209L8.46551 15.5351L7.05131 14.1209ZM16.9508 2.80719L21.1935 7.04983C21.584 7.44036 21.584 8.07352 21.1935 8.46405L8.46551 21.192C8.07498 21.5825 7.44183 21.5825 7.05131 21.192L2.80865 16.9494C2.41813 16.5588 2.41813 15.9257 2.80865 15.5351L15.5366 2.80719C15.9271 2.41667 16.5603 2.41667 16.9508 2.80719ZM14.1224 18.3631L15.5366 16.9489L17.7791 19.1914H19.1933V17.7772L16.9508 15.5347L18.365 14.1204L21.0007 16.7561V20.9995H16.7588L14.1224 18.3631ZM5.63695 9.87763L2.80852 7.0492C2.418 6.65868 2.418 6.02551 2.80852 5.63499L5.63695 2.80656C6.02747 2.41604 6.66063 2.41604 7.05116 2.80656L9.87958 5.63499L8.46538 7.0492L6.34406 4.92788L4.92984 6.3421L7.05116 8.46342L5.63695 9.87763Z" fill="black"/>
</svg>
