<svg width="125" height="125" viewBox="0 0 125 125" fill="none" xmlns="http://www.w3.org/2000/svg">
<path d="M62.5013 114.581C33.7365 114.581 10.418 91.262 10.418 62.4974C10.418 33.7325 33.7365 10.4141 62.5013 10.4141C91.2659 10.4141 114.585 33.7325 114.585 62.4974C114.585 91.262 91.2659 114.581 62.5013 114.581ZM55.3237 43.8234C54.9815 43.5952 54.5794 43.4735 54.168 43.4735C53.0174 43.4735 52.0846 44.4062 52.0846 45.5568V79.438C52.0846 79.8495 52.2065 80.2516 52.4346 80.5937C53.0727 81.551 54.3664 81.8099 55.3237 81.1713L80.7346 64.2307C80.9633 64.0781 81.1596 63.8818 81.3122 63.6531C81.9508 62.6958 81.6919 61.4021 80.7346 60.7641L55.3237 43.8234Z" fill="#F7E49C"/>
</svg>
