<svg width="226" height="48" viewBox="0 0 226 48" fill="none" xmlns="http://www.w3.org/2000/svg">
<path d="M15.7831 14.826L24 13L32.2169 14.826C32.6745 14.9277 33 15.3335 33 15.8022V25.7889C33 27.795 31.9974 29.6684 30.3282 30.7812L24 35L17.6718 30.7812C16.0026 29.6684 15 27.795 15 25.7889V15.8022C15 15.3335 15.3255 14.9277 15.7831 14.826ZM17 16.6043V25.7889C17 27.1263 17.6684 28.3752 18.7812 29.1171L24 32.5963L29.2188 29.1171C30.3316 28.3752 31 27.1263 31 25.7889V16.6043L24 15.0488L17 16.6043Z" fill="white"/>
<path d="M62.328 30L62.328 18.8H66.28C67.048 18.8 67.7253 18.9547 68.312 19.264C68.8987 19.5733 69.3573 20.0053 69.688 20.56C70.0187 21.104 70.184 21.7387 70.184 22.464C70.184 23.168 70.0293 23.7973 69.72 24.352C69.4107 24.9067 68.9787 25.344 68.424 25.664C67.88 25.9733 67.2453 26.128 66.52 26.128H64.184V30H62.328ZM64.184 24.416H66.488C67.0213 24.416 67.4587 24.2347 67.8 23.872C68.1413 23.5093 68.312 23.04 68.312 22.464C68.312 21.8773 68.12 21.4027 67.736 21.04C67.352 20.6773 66.856 20.496 66.248 20.496H64.184V24.416ZM72.4691 25.744C72.4691 24.88 72.6345 24.1707 72.9651 23.616C73.2958 23.0613 73.7225 22.6507 74.2451 22.384C74.7785 22.1067 75.3331 21.968 75.9091 21.968V23.68C75.4185 23.68 74.9545 23.7493 74.5171 23.888C74.0905 24.016 73.7438 24.2293 73.4771 24.528C73.2105 24.8267 73.0771 25.2213 73.0771 25.712L72.4691 25.744ZM71.2851 30V22L73.0771 22V30H71.2851ZM77.0496 30V22H78.8256V30H77.0496ZM77.9456 20.48C77.6576 20.48 77.407 20.3787 77.1936 20.176C76.991 19.9627 76.8896 19.712 76.8896 19.424C76.8896 19.136 76.991 18.8907 77.1936 18.688C77.407 18.4853 77.6576 18.384 77.9456 18.384C78.2336 18.384 78.479 18.4853 78.6816 18.688C78.895 18.8907 79.0016 19.136 79.0016 19.424C79.0016 19.712 78.895 19.9627 78.6816 20.176C78.479 20.3787 78.2336 20.48 77.9456 20.48ZM83.3536 30L86.4736 22H88.3296L85.0336 30H83.3536ZM83.2256 30L79.9136 22H81.7536L84.8896 30H83.2256ZM93.9508 30L93.8708 28.496V25.888C93.8708 25.344 93.8121 24.8907 93.6948 24.528C93.5881 24.1547 93.4068 23.872 93.1508 23.68C92.9054 23.4773 92.5748 23.376 92.1588 23.376C91.7748 23.376 91.4388 23.456 91.1508 23.616C90.8628 23.776 90.6174 24.0267 90.4148 24.368L88.8468 23.792C89.0174 23.44 89.2414 23.1147 89.5188 22.816C89.8068 22.5067 90.1641 22.2613 90.5908 22.08C91.0281 21.8987 91.5508 21.808 92.1588 21.808C92.9374 21.808 93.5881 21.9627 94.1108 22.272C94.6334 22.5707 95.0174 23.0027 95.2628 23.568C95.5188 24.1333 95.6468 24.816 95.6468 25.616L95.5988 30H93.9508ZM91.6468 30.192C90.6868 30.192 89.9401 29.9787 89.4068 29.552C88.8841 29.1253 88.6228 28.5227 88.6228 27.744C88.6228 26.912 88.9001 26.2773 89.4548 25.84C90.0201 25.4027 90.8041 25.184 91.8068 25.184H93.9508V26.56H92.3828C91.6681 26.56 91.1668 26.6613 90.8788 26.864C90.5908 27.056 90.4468 27.3333 90.4468 27.696C90.4468 28.0053 90.5694 28.2507 90.8148 28.432C91.0708 28.6027 91.4228 28.688 91.8708 28.688C92.2761 28.688 92.6281 28.5973 92.9268 28.416C93.2254 28.2347 93.4548 27.9947 93.6148 27.696C93.7854 27.3973 93.8708 27.0613 93.8708 26.688H94.3988C94.3988 27.776 94.1801 28.6347 93.7428 29.264C93.3054 29.8827 92.6068 30.192 91.6468 30.192ZM101.045 30.192C100.224 30.192 99.4987 30.016 98.8694 29.664C98.24 29.3013 97.744 28.8053 97.3814 28.176C97.0294 27.5467 96.8534 26.8213 96.8534 26C96.8534 25.1787 97.0294 24.4533 97.3814 23.824C97.744 23.1947 98.2347 22.704 98.8534 22.352C99.4827 21.9893 100.203 21.808 101.013 21.808C101.803 21.808 102.517 22 103.157 22.384C103.797 22.7573 104.272 23.296 104.581 24L102.917 24.64C102.747 24.288 102.485 24.0053 102.133 23.792C101.781 23.5787 101.381 23.472 100.933 23.472C100.496 23.472 100.107 23.584 99.7654 23.808C99.424 24.0213 99.1574 24.32 98.9654 24.704C98.7734 25.0773 98.6774 25.5093 98.6774 26C98.6774 26.4907 98.7734 26.928 98.9654 27.312C99.168 27.6853 99.44 27.984 99.7814 28.208C100.133 28.4213 100.528 28.528 100.965 28.528C101.413 28.528 101.813 28.416 102.165 28.192C102.517 27.9573 102.779 27.6427 102.949 27.248L104.613 27.888C104.304 28.6133 103.829 29.1787 103.189 29.584C102.56 29.9893 101.845 30.192 101.045 30.192ZM106.812 33.392C106.556 33.392 106.268 33.344 105.948 33.248C105.638 33.152 105.34 33.0293 105.052 32.88L105.724 31.424C105.926 31.52 106.113 31.5947 106.284 31.648C106.454 31.712 106.593 31.744 106.7 31.744C106.956 31.744 107.169 31.6747 107.34 31.536C107.521 31.408 107.665 31.216 107.772 30.96L108.716 28.752L111.42 22H113.372L109.66 30.848C109.436 31.36 109.206 31.808 108.972 32.192C108.748 32.576 108.465 32.8693 108.124 33.072C107.782 33.2853 107.345 33.392 106.812 33.392ZM108.236 30L104.652 22H106.604L109.388 28.736L109.964 30H108.236Z" fill="white"/>
</svg>
