<svg width="22" height="22" viewBox="0 0 22 22" fill="none" xmlns="http://www.w3.org/2000/svg">
<path d="M16.8807 18.2968C15.1794 19.3755 13.1618 20.0002 10.9983 20.0002C5.60617 20.0002 1.1202 16.1204 0.179688 11.0002C0.616367 8.62283 1.81737 6.5129 3.51852 4.93457L0.391707 1.80777L1.80593 0.393555L21.6049 20.1925L20.1907 21.6068L16.8807 18.2968ZM4.93365 6.3497C3.60478 7.56015 2.63585 9.1672 2.22083 11.0002C3.13827 15.0521 6.76265 18.0002 10.9983 18.0002C12.5977 18.0002 14.11 17.5798 15.4223 16.8384L13.394 14.8101C12.7003 15.2472 11.8788 15.5002 10.9983 15.5002C8.51303 15.5002 6.49831 13.4854 6.49831 11.0002C6.49831 10.1196 6.75122 9.2981 7.18836 8.60442L4.93365 6.3497ZM11.9119 13.328L8.67051 10.0866C8.55935 10.3696 8.49831 10.6777 8.49831 11.0002C8.49831 12.3809 9.61765 13.5002 10.9983 13.5002C11.3207 13.5002 11.6289 13.4391 11.9119 13.328ZM19.8048 15.5925L18.374 14.1617C19.0299 13.2268 19.5134 12.1586 19.7757 11.0002C18.8583 6.94818 15.2339 4.00016 10.9983 4.00016C10.1524 4.00016 9.33095 4.11773 8.55054 4.33818L6.97251 2.76015C8.21932 2.26959 9.57735 2.00016 10.9983 2.00016C16.3904 2.00016 20.8764 5.87993 21.8169 11.0002C21.5047 12.6998 20.8018 14.2628 19.8048 15.5925ZM10.7209 6.50857C10.8126 6.503 10.9051 6.50016 10.9983 6.50016C13.4835 6.50016 15.4983 8.51488 15.4983 11.0002C15.4983 11.0933 15.4954 11.1858 15.4899 11.2775L10.7209 6.50857Z" fill="black" fill-opacity="0.48"/>
</svg>
