<svg width="20" height="16" viewBox="0 0 20 16" fill="none" xmlns="http://www.w3.org/2000/svg">
<path d="M10.2439 0C10.778 0.00294 12.1143 0.0158601 13.5341 0.0727301L14.0375 0.0946798C15.467 0.16236 16.8953 0.27798 17.6037 0.4755C18.5486 0.74095 19.2913 1.5155 19.5423 2.49732C19.942 4.05641 19.992 7.0994 19.9982 7.8358L19.9991 7.9884V7.9991C19.9991 7.9991 19.9991 8.0028 19.9991 8.0099L19.9982 8.1625C19.992 8.8989 19.942 11.9419 19.5423 13.501C19.2878 14.4864 18.5451 15.261 17.6037 15.5228C16.8953 15.7203 15.467 15.8359 14.0375 15.9036L13.5341 15.9255C12.1143 15.9824 10.778 15.9953 10.2439 15.9983L10.0095 15.9991H9.9991C9.9991 15.9991 9.9956 15.9991 9.9887 15.9991L9.7545 15.9983C8.6241 15.9921 3.89772 15.941 2.39451 15.5228C1.4496 15.2573 0.70692 14.4828 0.45587 13.501C0.0561999 11.9419 0.00624 8.8989 0 8.1625V7.8358C0.00624 7.0994 0.0561999 4.05641 0.45587 2.49732C0.7104 1.51186 1.45308 0.73732 2.39451 0.4755C3.89772 0.0572301 8.6241 0.00622 9.7545 0H10.2439ZM7.99911 4.49914V11.4991L13.9991 7.9991L7.99911 4.49914Z" fill="black" fill-opacity="0.56"/>
</svg>
