<svg width="18" height="18" viewBox="0 0 18 18" fill="none" xmlns="http://www.w3.org/2000/svg">
<path d="M9.88282 5.76L11.0613 6.93851C13.3394 9.21661 13.3394 12.91 11.0613 15.1881L10.7667 15.4827C8.48865 17.7608 4.7952 17.7608 2.51714 15.4827C0.239079 13.2047 0.239079 9.51119 2.51714 7.23314L3.69565 8.41169C2.06847 10.0389 2.06847 12.677 3.69565 14.3042C5.32284 15.9314 7.96099 15.9314 9.58824 14.3042L9.88282 14.0096C11.51 12.3824 11.51 9.74419 9.88282 8.11702L8.70432 6.93851L9.88282 5.76ZM15.4807 10.7687L14.3022 9.59019C15.9294 7.96294 15.9294 5.32479 14.3022 3.69761C12.6751 2.07042 10.0369 2.07042 8.40974 3.69761L8.11507 3.99223C6.48789 5.61942 6.48789 8.25761 8.11507 9.88478L9.29357 11.0633L8.11507 12.2418L6.93655 11.0633C4.6585 8.78527 4.6585 5.09178 6.93655 2.81372L7.23119 2.51909C9.50924 0.241032 13.2027 0.241032 15.4807 2.51909C17.7588 4.79715 17.7588 8.49061 15.4807 10.7687Z" fill="white"/>
</svg>
