<svg width="20" height="18" viewBox="0 0 20 18" fill="none" xmlns="http://www.w3.org/2000/svg">
<path d="M4.94146 2.00091C4.94109 2.81522 4.44706 3.548 3.69232 3.85371C2.93758 4.15943 2.07285 3.97703 1.50588 3.39253C0.938906 2.80802 0.782926 1.93813 1.11148 1.19305C1.44004 0.447966 2.18752 -0.023524 3.00146 0.000905952C4.08253 0.033356 4.94195 0.919346 4.94146 2.00091ZM5.00146 5.48091H1.00146V18.0009H5.00146V5.48091ZM11.3215 5.48091H7.34146V18.0009H11.2815V11.4309C11.2815 7.77088 16.0515 7.43088 16.0515 11.4309V18.0009H20.0015V10.0709C20.0015 3.90091 12.9415 4.13091 11.2815 7.16088L11.3215 5.48091Z" fill="black" fill-opacity="0.56"/>
</svg>
