<svg width="24" height="23" viewBox="0 0 24 23" fill="none" xmlns="http://www.w3.org/2000/svg">
<path d="M20.1674 13.3332V16.8332H23.6674V19.1665H20.1663L20.1674 22.6665H17.8341L17.8329 19.1665H14.3341V16.8332H17.8341V13.3332H20.1674ZM21.617 2.55025C24.2565 5.19515 24.3474 9.40864 21.8934 12.1573L20.2373 10.503C21.7891 8.72486 21.7074 5.93653 19.9655 4.19845C18.2125 2.44941 15.3928 2.37485 13.5605 4.01969L12.0029 5.41778L10.4444 4.02078C8.60679 2.37363 5.78822 2.44611 4.03415 4.20018C2.29612 5.9382 2.20886 8.72183 3.81057 10.5604L13.648 20.4138L12.0005 22.0658L2.10893 12.1585C-0.346126 9.40981 -0.254356 5.18885 2.38424 2.55025C5.02581 -0.091324 9.25337 -0.180318 12.0018 2.28329C14.7423 -0.176666 18.9773 -0.094999 21.617 2.55025Z" fill="black"/>
</svg>
