<svg width="28" height="28" viewBox="0 0 28 28" fill="none" xmlns="http://www.w3.org/2000/svg">
<path d="M14.0012 5.28329C16.7417 2.82333 20.9767 2.905 23.6164 5.55025C26.2562 8.19551 26.3469 12.4098 23.8917 15.1585L13.9999 25.0658L4.10832 15.1585C1.65326 12.4098 1.74503 8.18885 4.38363 5.55025C7.02521 2.90868 11.2528 2.81968 14.0012 5.28329ZM11.1094 13.5604C9.3605 11.8079 14.6918 7.6885 12.8594 9.33333L14.0023 8.41778L11.6928 12.25C5.64994 13.9818 4.10844 11.9652 6.23328 11.6484C4.49525 13.3865 12.4006 6.57923 14.0023 8.41778L13.9999 21.7634L11.6928 13.5604C13.2951 11.7212 12.8501 15.3047 11.1094 13.5604Z" fill="#FFCB00" fill-opacity="0.48"/>
<path d="M22.1668 16.3332V19.8332H25.6668V22.1665H22.1657L22.1668 25.6665H19.8335L19.8323 22.1665H16.3335V19.8332H19.8335V16.3332H22.1668ZM23.6164 5.55025C26.2559 8.19515 26.3468 12.4086 23.8928 15.1573L22.2367 13.503C23.7885 11.7249 23.7068 8.93653 21.9649 7.19845C20.2118 5.44941 17.3922 5.37485 15.5599 7.01969L14.0023 8.41778L12.4438 7.02078C10.6062 5.37363 7.78761 5.44611 6.03354 7.20018C4.29551 8.9382 4.20825 11.7218 5.80996 13.5604L15.6474 23.4138L13.9999 25.0658L4.10832 15.1585C1.65326 12.4098 1.74503 8.18885 4.38363 5.55025C7.0252 2.90868 11.2528 2.81968 14.0012 5.28329C16.7417 2.82333 20.9767 2.905 23.6164 5.55025Z" fill="black"/>
</svg>
