<svg width="20" height="20" viewBox="0 0 20 20" fill="none" xmlns="http://www.w3.org/2000/svg">
<path d="M7.5013 0.833984V2.50065H12.5013V0.833984H14.168V2.50065H17.5013C17.9616 2.50065 18.3346 2.87375 18.3346 3.33398V16.6673C18.3346 17.1276 17.9616 17.5007 17.5013 17.5007H2.5013C2.04107 17.5007 1.66797 17.1276 1.66797 16.6673V3.33398C1.66797 2.87375 2.04107 2.50065 2.5013 2.50065H5.83464V0.833984H7.5013ZM16.668 9.16732H3.33464V15.834H16.668V9.16732ZM5.83464 4.16732H3.33464V7.50065H16.668V4.16732H14.168V5.83398H12.5013V4.16732H7.5013V5.83398H5.83464V4.16732Z" fill="black" fill-opacity="0.56"/>
</svg>
