<svg width="20" height="20" viewBox="0 0 20 20" fill="none" xmlns="http://www.w3.org/2000/svg">
<path d="M7.00195 0.000732422V2.00073H13.002V0.000732422H15.002V2.00073H19.002C19.5543 2.00073 20.002 2.44845 20.002 3.00073V19.0007C20.002 19.553 19.5543 20.0007 19.002 20.0007H1.00195C0.449673 20.0007 0.00195312 19.553 0.00195312 19.0007V3.00073C0.00195312 2.44845 0.449673 2.00073 1.00195 2.00073H5.00195V0.000732422H7.00195ZM18.002 10.0007H2.00195V18.0007H18.002V10.0007ZM5.00195 4.00073H2.00195V8.00073H18.002V4.00073H15.002V6.00073H13.002V4.00073H7.00195V6.00073H5.00195V4.00073Z" fill="black"/>
</svg>
