<svg width="24" height="24" viewBox="0 0 24 24" fill="none" xmlns="http://www.w3.org/2000/svg">
<g opacity="0.72">
<path d="M12.001 4.52853C14.35 2.42 17.98 2.49 20.2426 4.75736C22.5053 7.02472 22.583 10.637 20.4786 12.993L11.9999 21.485L3.52138 12.993C1.41705 10.637 1.49571 7.01901 3.75736 4.75736C6.02157 2.49315 9.64519 2.41687 12.001 4.52853ZM18.827 6.1701C17.3279 4.66794 14.9076 4.60701 13.337 6.01687L12.0019 7.21524L10.6661 6.01781C9.09098 4.60597 6.67506 4.66808 5.17157 6.17157C3.68183 7.66131 3.60704 10.0473 4.97993 11.6232L11.9999 18.6543L19.0201 11.6232C20.3935 10.0467 20.319 7.66525 18.827 6.1701Z" fill="black"/>
<path d="M13.3371 6.01693C14.9077 4.60707 17.328 4.668 18.8271 6.17016C20.3191 7.66531 20.3936 10.0468 19.0202 11.6233L12 18.6544L4.97999 11.6233C3.6071 10.0474 3.68189 7.66137 5.17163 6.17163C6.67512 4.66814 9.09104 4.60603 10.6662 6.01787L12.002 7.2153L13.3371 6.01693Z" fill="black"/>
</g>
</svg>
