<svg width="14" height="14" viewBox="0 0 14 14" fill="none" xmlns="http://www.w3.org/2000/svg">
<path d="M7.7086 4.40732L8.6514 5.35012C10.4739 7.1726 10.4739 10.1273 8.6514 11.9498L8.41573 12.1855C6.59327 14.0079 3.6385 14.0079 1.81605 12.1855C-0.00639296 10.3631 -0.00639296 7.40827 1.81605 5.58583L2.75887 6.52867C1.45712 7.8304 1.45712 9.94094 2.75887 11.2427C4.06061 12.5444 6.17113 12.5444 7.47293 11.2427L7.7086 11.007C9.01033 9.7052 9.01033 7.59467 7.7086 6.29294L6.7658 5.35012L7.7086 4.40732ZM12.1869 8.41427L11.2441 7.47147C12.5459 6.16967 12.5459 4.05915 11.2441 2.7574C9.9424 1.45566 7.83187 1.45566 6.53013 2.7574L6.2944 2.9931C4.99265 4.29485 4.99265 6.4054 6.2944 7.70714L7.2372 8.64994L6.2944 9.59274L5.35159 8.64994C3.52914 6.82754 3.52914 3.87274 5.35159 2.0503L5.58729 1.81459C7.40973 -0.0078578 10.3645 -0.0078578 12.1869 1.81459C14.0094 3.63704 14.0094 6.5918 12.1869 8.41427Z" fill="black"/>
</svg>
