<svg width="226" height="48" viewBox="0 0 226 48" fill="none" xmlns="http://www.w3.org/2000/svg">
<path d="M27.7279 21.5709L26.3137 20.1567L17 29.4704V30.8846H18.4142L27.7279 21.5709ZM29.1421 20.1567L30.5563 18.7425L29.1421 17.3283L27.7279 18.7425L29.1421 20.1567ZM19.2426 32.8846H15V28.6419L28.435 15.207C28.8256 14.8164 29.4587 14.8164 29.8492 15.207L32.6777 18.0354C33.0682 18.4259 33.0682 19.0591 32.6777 19.4496L19.2426 32.8846Z" fill="white"/>
<path d="M62.328 30L62.328 18.8H69.224V20.496H64.184V23.472H68.632V25.136H64.184V28.304L69.272 28.304V30L62.328 30ZM77.0455 30L76.9655 28.512V18.8H78.7415V30H77.0455ZM74.4375 30.192C73.7122 30.192 73.0775 30.0213 72.5335 29.68C72.0002 29.328 71.5788 28.8373 71.2695 28.208C70.9708 27.5787 70.8215 26.8427 70.8215 26C70.8215 25.1467 70.9708 24.4107 71.2695 23.792C71.5788 23.1627 72.0002 22.6773 72.5335 22.336C73.0775 21.984 73.7122 21.808 74.4375 21.808C75.1095 21.808 75.6855 21.984 76.1655 22.336C76.6562 22.6773 77.0295 23.1627 77.2855 23.792C77.5415 24.4107 77.6695 25.1467 77.6695 26C77.6695 26.8427 77.5415 27.5787 77.2855 28.208C77.0295 28.8373 76.6562 29.328 76.1655 29.68C75.6855 30.0213 75.1095 30.192 74.4375 30.192ZM74.8855 28.56C75.2908 28.56 75.6482 28.4533 75.9575 28.24C76.2775 28.016 76.5228 27.712 76.6935 27.328C76.8748 26.944 76.9655 26.5013 76.9655 26C76.9655 25.4987 76.8748 25.056 76.6935 24.672C76.5228 24.288 76.2775 23.9893 75.9575 23.776C75.6482 23.5627 75.2855 23.456 74.8695 23.456C74.4428 23.456 74.0642 23.5627 73.7335 23.776C73.4028 23.9893 73.1415 24.288 72.9495 24.672C72.7682 25.056 72.6722 25.4987 72.6615 26C72.6722 26.5013 72.7682 26.944 72.9495 27.328C73.1415 27.712 73.4028 28.016 73.7335 28.24C74.0748 28.4533 74.4588 28.56 74.8855 28.56ZM80.6746 30V22H82.4506V30H80.6746ZM81.5706 20.48C81.2826 20.48 81.032 20.3787 80.8186 20.176C80.616 19.9627 80.5146 19.712 80.5146 19.424C80.5146 19.136 80.616 18.8907 80.8186 18.688C81.032 18.4853 81.2826 18.384 81.5706 18.384C81.8586 18.384 82.104 18.4853 82.3066 18.688C82.52 18.8907 82.6266 19.136 82.6266 19.424C82.6266 19.712 82.52 19.9627 82.3066 20.176C82.104 20.3787 81.8586 20.48 81.5706 20.48ZM87.5866 30.192C86.744 30.192 86.0986 29.984 85.6506 29.568C85.2133 29.1413 84.9946 28.5333 84.9946 27.744V19.504H86.7706V27.408C86.7706 27.7813 86.856 28.064 87.0266 28.256C87.208 28.448 87.4693 28.544 87.8106 28.544C87.9173 28.544 88.0346 28.5227 88.1626 28.48C88.2906 28.4373 88.4346 28.3573 88.5946 28.24L89.2506 29.6C88.9733 29.792 88.696 29.936 88.4186 30.032C88.1413 30.1387 87.864 30.192 87.5866 30.192ZM83.6666 23.536V22H88.9306V23.536H83.6666ZM94.5593 30V18.8H98.5113C99.2793 18.8 99.9566 18.9547 100.543 19.264C101.13 19.5733 101.589 20.0053 101.919 20.56C102.25 21.104 102.415 21.7387 102.415 22.464C102.415 23.168 102.261 23.7973 101.951 24.352C101.642 24.9067 101.21 25.344 100.655 25.664C100.111 25.9733 99.4766 26.128 98.7513 26.128H96.4153V30H94.5593ZM96.4153 24.416H98.7193C99.2526 24.416 99.6899 24.2347 100.031 23.872C100.373 23.5093 100.543 23.04 100.543 22.464C100.543 21.8773 100.351 21.4027 99.9673 21.04C99.5833 20.6773 99.0873 20.496 98.4793 20.496H96.4153V24.416ZM104.7 25.744C104.7 24.88 104.866 24.1707 105.196 23.616C105.527 23.0613 105.954 22.6507 106.476 22.384C107.01 22.1067 107.564 21.968 108.14 21.968V23.68C107.65 23.68 107.186 23.7493 106.748 23.888C106.322 24.016 105.975 24.2293 105.708 24.528C105.442 24.8267 105.308 25.2213 105.308 25.712L104.7 25.744ZM103.516 30V22H105.308V30H103.516ZM112.849 30.192C112.049 30.192 111.334 30.016 110.705 29.664C110.086 29.3013 109.601 28.8053 109.249 28.176C108.897 27.5467 108.721 26.8213 108.721 26C108.721 25.1787 108.892 24.4533 109.233 23.824C109.585 23.1947 110.07 22.704 110.689 22.352C111.308 21.9893 112.017 21.808 112.817 21.808C113.617 21.808 114.326 21.9893 114.945 22.352C115.564 22.704 116.044 23.1947 116.385 23.824C116.737 24.4533 116.913 25.1787 116.913 26C116.913 26.8213 116.742 27.5467 116.401 28.176C116.06 28.8053 115.58 29.3013 114.961 29.664C114.342 30.016 113.638 30.192 112.849 30.192ZM112.849 28.544C113.286 28.544 113.676 28.4373 114.017 28.224C114.358 28 114.625 27.7013 114.817 27.328C115.009 26.944 115.105 26.5013 115.105 26C115.105 25.4987 115.004 25.0613 114.801 24.688C114.609 24.304 114.342 24.0053 114.001 23.792C113.66 23.568 113.265 23.456 112.817 23.456C112.369 23.456 111.974 23.5627 111.633 23.776C111.292 23.9893 111.025 24.288 110.833 24.672C110.641 25.056 110.545 25.4987 110.545 26C110.545 26.5013 110.641 26.944 110.833 27.328C111.036 27.7013 111.308 28 111.649 28.224C112.001 28.4373 112.401 28.544 112.849 28.544ZM119.106 30V21.152C119.106 20.3093 119.314 19.664 119.73 19.216C120.156 18.7573 120.796 18.528 121.65 18.528C121.927 18.528 122.22 18.576 122.53 18.672C122.85 18.7573 123.154 18.8747 123.442 19.024L122.786 20.352C122.583 20.256 122.402 20.1867 122.242 20.144C122.092 20.1013 121.959 20.08 121.842 20.08C121.522 20.08 121.282 20.1867 121.122 20.4C120.972 20.6027 120.898 20.9387 120.898 21.408V30H119.106ZM117.73 23.472V22H122.994V23.472H117.73ZM124.398 30V22H126.174V30H124.398ZM125.294 20.48C125.006 20.48 124.756 20.3787 124.542 20.176C124.34 19.9627 124.238 19.712 124.238 19.424C124.238 19.136 124.34 18.8907 124.542 18.688C124.756 18.4853 125.006 18.384 125.294 18.384C125.582 18.384 125.828 18.4853 126.03 18.688C126.244 18.8907 126.35 19.136 126.35 19.424C126.35 19.712 126.244 19.9627 126.03 20.176C125.828 20.3787 125.582 20.48 125.294 20.48ZM128.126 30V18.8H129.918V30H128.126ZM135.316 30.192C134.537 30.192 133.844 30.016 133.236 29.664C132.638 29.3013 132.164 28.8053 131.812 28.176C131.47 27.5467 131.3 26.8213 131.3 26C131.3 25.1787 131.476 24.4533 131.828 23.824C132.18 23.1947 132.66 22.704 133.268 22.352C133.886 21.9893 134.59 21.808 135.38 21.808C136.094 21.808 136.74 21.9947 137.316 22.368C137.892 22.7307 138.345 23.2587 138.676 23.952C139.017 24.6453 139.188 25.472 139.188 26.432L132.9 26.432L133.14 26.208C133.14 26.6987 133.246 27.1253 133.46 27.488C133.673 27.84 133.956 28.112 134.308 28.304C134.66 28.496 135.049 28.592 135.476 28.592C135.966 28.592 136.372 28.4853 136.692 28.272C137.012 28.048 137.262 27.76 137.444 27.408L139.028 28.08C138.804 28.5067 138.516 28.88 138.164 29.2C137.822 29.52 137.412 29.7653 136.932 29.936C136.462 30.1067 135.924 30.192 135.316 30.192ZM133.252 25.28L132.996 25.056L137.508 25.056L137.268 25.28C137.268 24.8427 137.172 24.4853 136.98 24.208C136.788 23.92 136.542 23.7067 136.244 23.568C135.956 23.4187 135.652 23.344 135.332 23.344C135.012 23.344 134.692 23.4187 134.372 23.568C134.052 23.7067 133.785 23.92 133.572 24.208C133.358 24.4853 133.252 24.8427 133.252 25.28Z" fill="white"/>
</svg>
