<svg width="18" height="18" viewBox="0 0 18 18" fill="none" xmlns="http://www.w3.org/2000/svg">
<path d="M9.0013 17.3327C4.39893 17.3327 0.667969 13.6017 0.667969 8.99935C0.667969 4.39697 4.39893 0.666016 9.0013 0.666016C13.6036 0.666016 17.3346 4.39697 17.3346 8.99935C17.3346 13.6017 13.6036 17.3327 9.0013 17.3327ZM7.09299 15.3888C6.29083 13.6876 5.79907 11.8112 5.69073 9.83268H2.38621C2.7163 12.4798 4.59829 14.6449 7.09299 15.3888ZM7.36022 9.83268C7.48555 11.865 8.06614 13.7741 9.0013 15.4593C9.93647 13.7741 10.5171 11.865 10.6424 9.83268H7.36022ZM15.6164 9.83268H12.3119C12.2036 11.8112 11.7118 13.6876 10.9096 15.3888C13.4043 14.6449 15.2863 12.4798 15.6164 9.83268ZM2.38621 8.16602H5.69073C5.79907 6.18749 6.29083 4.31107 7.09299 2.60982C4.59829 3.35379 2.7163 5.51893 2.38621 8.16602ZM7.36022 8.16602H10.6424C10.5171 6.1337 9.93647 4.22456 9.0013 2.53934C8.06614 4.22456 7.48555 6.1337 7.36022 8.16602ZM10.9096 2.60982C11.7118 4.31107 12.2036 6.18749 12.3119 8.16602H15.6164C15.2863 5.51893 13.4043 3.35379 10.9096 2.60982Z" fill="black" fill-opacity="0.56"/>
</svg>
