<svg width="24" height="24" viewBox="0 0 24 24" fill="none" xmlns="http://www.w3.org/2000/svg">
<path d="M2.00195 11.9978C2.00195 11.1333 2.11165 10.2944 2.3179 9.49436C3.40817 9.55088 4.49043 9.0082 5.07375 7.99787C5.65662 6.9883 5.58601 5.78076 4.99316 4.86506C6.18549 3.69334 7.67027 2.81826 9.32798 2.35938C9.82415 3.33189 10.8353 3.99786 12.002 3.99786C13.1687 3.99786 14.1798 3.33189 14.676 2.35938C16.3337 2.81826 17.8185 3.69334 19.0108 4.86506C18.4179 5.78076 18.3473 6.9883 18.9302 7.99787C19.5135 9.0082 20.5958 9.55088 21.6861 9.49436C21.8923 10.2944 22.002 11.1333 22.002 11.9978C22.002 12.8623 21.8923 13.7012 21.6861 14.5013C20.5958 14.4448 19.5135 14.9875 18.9302 15.9978C18.3473 17.0074 18.4179 18.2149 19.0108 19.1306C17.8185 20.3023 16.3337 21.1774 14.676 21.6363C14.1798 20.6638 13.1687 19.9978 12.002 19.9978C10.8353 19.9978 9.82415 20.6638 9.32798 21.6363C7.67027 21.1774 6.18549 20.3023 4.99316 19.1306C5.58601 18.2149 5.65662 17.0074 5.07375 15.9978C4.49043 14.9875 3.40817 14.4448 2.3179 14.5013C2.11165 13.7012 2.00195 12.8623 2.00195 11.9978ZM6.8058 14.9978C7.4359 16.0892 7.61653 17.3439 7.37013 18.5216C7.77792 18.8118 8.212 19.0632 8.66684 19.2721C9.56371 18.4692 10.7412 17.9978 12.002 17.9978C13.2628 17.9978 14.4402 18.4692 15.3371 19.2721C15.7919 19.0632 16.226 18.8118 16.6338 18.5216C16.3874 17.3439 16.568 16.0892 17.1982 14.9978C17.8282 13.9065 18.8245 13.1228 19.9675 12.7473C19.9904 12.4995 20.002 12.2496 20.002 11.9978C20.002 11.7461 19.9904 11.4961 19.9675 11.2484C18.8245 10.8729 17.8282 10.0892 17.1982 8.99786C16.568 7.90649 16.3874 6.65182 16.6338 5.47409C16.226 5.18392 15.7919 4.93252 15.3371 4.72357C14.4402 5.52649 13.2628 5.99787 12.002 5.99787C10.7412 5.99787 9.56371 5.52649 8.66684 4.72357C8.212 4.93252 7.77792 5.18392 7.37013 5.47409C7.61653 6.65182 7.4359 7.90649 6.8058 8.99786C6.17571 10.0892 5.17949 10.8729 4.03646 11.2484C4.01352 11.4961 4.00195 11.7461 4.00195 11.9978C4.00195 12.2496 4.01352 12.4995 4.03646 12.7473C5.17949 13.1228 6.17571 13.9065 6.8058 14.9978ZM12.002 14.9978C10.3451 14.9978 9.00195 13.6547 9.00195 11.9978C9.00195 10.341 10.3451 8.99786 12.002 8.99786C13.6589 8.99786 15.002 10.341 15.002 11.9978C15.002 13.6547 13.6589 14.9978 12.002 14.9978ZM12.002 12.9978C12.5543 12.9978 13.002 12.5501 13.002 11.9978C13.002 11.4455 12.5543 10.9978 12.002 10.9978C11.4497 10.9978 11.002 11.4455 11.002 11.9978C11.002 12.5501 11.4497 12.9978 12.002 12.9978Z" fill="white"/>
</svg>
