<svg width="21" height="20" viewBox="0 0 21 20" fill="none" xmlns="http://www.w3.org/2000/svg">
<path d="M9.0199 17.8634C9.0955 16.6615 9.3833 15.5172 9.8463 14.4676C8.31124 14.3252 6.91864 13.6867 5.83309 12.7151L7.16691 11.2248C8.05217 12.0172 9.2188 12.4978 10.5 12.4978C10.6763 12.4978 10.8501 12.4887 11.0211 12.471C12.727 10.2169 15.3661 8.7083 18.3634 8.5199C17.6692 4.80877 14.4126 2 10.5 2C6.08172 2 2.5 5.58172 2.5 10C2.5 13.9126 5.30877 17.1692 9.0199 17.8634ZM17.5233 10.636C14.2891 11.2396 11.7396 13.7891 11.136 17.0233L17.5233 10.636ZM20.5 10C20.5 10.1677 20.4959 10.3344 20.4877 10.5L11 19.9877C10.8344 19.9959 10.6677 20 10.5 20C4.97715 20 0.5 15.5228 0.5 10C0.5 4.47715 4.97715 0 10.5 0C16.0228 0 20.5 4.47715 20.5 10ZM8.5 8C8.5 8.8284 7.82843 9.5 7 9.5C6.17157 9.5 5.5 8.8284 5.5 8C5.5 7.17157 6.17157 6.5 7 6.5C7.82843 6.5 8.5 7.17157 8.5 8ZM15.5 8C15.5 8.8284 14.8284 9.5 14 9.5C13.1716 9.5 12.5 8.8284 12.5 8C12.5 7.17157 13.1716 6.5 14 6.5C14.8284 6.5 15.5 7.17157 15.5 8Z" fill="black" fill-opacity="0.72"/>
</svg>
