<svg width="16" height="12" viewBox="0 0 16 12" fill="none" xmlns="http://www.w3.org/2000/svg">
<path d="M7.99955 0C11.5943 0 14.5849 2.58651 15.2119 6C14.5849 9.41347 11.5943 12 7.99955 12C4.40476 12 1.41412 9.41347 0.787109 6C1.41412 2.58651 4.40476 0 7.99955 0ZM7.99955 10.6667C10.8233 10.6667 13.2395 8.70133 13.8511 6C13.2395 3.29869 10.8233 1.33333 7.99955 1.33333C5.17575 1.33333 2.7595 3.29869 2.14787 6C2.7595 8.70133 5.17575 10.6667 7.99955 10.6667ZM7.99955 9C6.34267 9 4.99952 7.65687 4.99952 6C4.99952 4.34315 6.34267 3 7.99955 3C9.65635 3 10.9995 4.34315 10.9995 6C10.9995 7.65687 9.65635 9 7.99955 9ZM7.99955 7.66667C8.92002 7.66667 9.66622 6.92047 9.66622 6C9.66622 5.07953 8.92002 4.33333 7.99955 4.33333C7.07908 4.33333 6.33286 5.07953 6.33286 6C6.33286 6.92047 7.07908 7.66667 7.99955 7.66667Z" fill="black" fill-opacity="0.56"/>
</svg>
