<svg width="14" height="14" viewBox="0 0 14 14" fill="none" xmlns="http://www.w3.org/2000/svg">
<path d="M3.83378 11.3296L4.31694 11.6114C5.1241 12.082 6.04145 12.3334 6.99871 12.3334C9.94425 12.3334 12.332 9.94557 12.332 7.00004C12.332 4.05452 9.94425 1.66671 6.99871 1.66671C4.05318 1.66671 1.66536 4.05452 1.66536 7.00004C1.66536 7.95757 1.91685 8.87524 2.38782 9.68257L2.6694 10.1652L2.23374 11.7663L3.83378 11.3296ZM0.334818 13.6667L1.23612 10.3544C0.661338 9.36911 0.332031 8.22304 0.332031 7.00004C0.332031 3.31814 3.3168 0.333374 6.99871 0.333374C10.6806 0.333374 13.6654 3.31814 13.6654 7.00004C13.6654 10.6819 10.6806 13.6667 6.99871 13.6667C5.77611 13.6667 4.63038 13.3376 3.64528 12.7632L0.334818 13.6667ZM4.59292 3.87226C4.68218 3.86599 4.77173 3.86503 4.8611 3.86939C4.89721 3.87176 4.93314 3.87593 4.9691 3.88009C5.07528 3.89235 5.19203 3.95701 5.23129 4.046C5.43016 4.49695 5.62314 4.95047 5.81018 5.40646C5.85144 5.50712 5.82658 5.63759 5.74804 5.76384C5.70818 5.82857 5.64557 5.91937 5.57303 6.01224C5.49764 6.10871 5.33537 6.28611 5.33537 6.28611C5.33537 6.28611 5.26963 6.36491 5.29441 6.46297C5.30406 6.50004 5.33485 6.55404 5.36276 6.59944C5.37822 6.62457 5.39258 6.64704 5.40189 6.66257C5.5725 6.94744 5.80184 7.23624 6.08198 7.50777C6.16224 7.58557 6.24011 7.66497 6.32384 7.73871C6.63604 8.01397 6.98924 8.23891 7.37071 8.40551L7.37411 8.40704C7.43044 8.43131 7.45938 8.44457 7.54184 8.47957C7.58345 8.49717 7.62598 8.51237 7.66964 8.52391C7.68544 8.52804 7.70164 8.53037 7.71791 8.53151C7.82571 8.53797 7.88805 8.46884 7.91465 8.43704C8.39698 7.85271 8.44111 7.81457 8.44444 7.81484V7.81591C8.50784 7.74911 8.60751 7.72591 8.69644 7.73137C8.73704 7.73384 8.77744 7.74164 8.81438 7.75851C9.16891 7.92024 9.74858 8.17251 9.74858 8.17251L10.1362 8.34677C10.2012 8.37811 10.2604 8.45191 10.2633 8.52364C10.265 8.56824 10.2698 8.64024 10.2539 8.77197C10.233 8.94444 10.1806 9.15211 10.1284 9.26091C10.0918 9.33724 10.0443 9.40497 9.98911 9.46231C9.91425 9.54004 9.85864 9.58724 9.76864 9.65431C9.71384 9.69511 9.68544 9.71431 9.68544 9.71431C9.59284 9.77271 9.54065 9.80191 9.43031 9.86064C9.25871 9.95204 9.06911 10.0046 8.87491 10.0146C8.75111 10.0209 8.62764 10.0298 8.50398 10.0232C8.49851 10.0228 8.12518 9.96551 8.12518 9.96551C7.17724 9.71617 6.30058 9.24911 5.56494 8.60137C5.41453 8.46897 5.27504 8.32571 5.13267 8.18397C4.53996 7.59391 4.09126 6.95764 3.81917 6.35577C3.685 6.05897 3.60004 5.74111 3.5987 5.41403C3.59624 5.00941 3.7287 4.61551 3.97517 4.29461C4.02376 4.23135 4.06987 4.16574 4.14944 4.09061C4.2337 4.01105 4.28732 3.96833 4.34509 3.93878C4.42209 3.89939 4.50666 3.87832 4.59292 3.87226Z" fill="black"/>
</svg>
