<svg width="18" height="18" viewBox="0 0 18 18" fill="none" xmlns="http://www.w3.org/2000/svg">
<path d="M9.0013 17.3327C4.39893 17.3327 0.667969 13.6017 0.667969 8.99935C0.667969 4.39697 4.39893 0.666016 9.0013 0.666016C13.6036 0.666016 17.3346 4.39697 17.3346 8.99935C17.3346 13.6017 13.6036 17.3327 9.0013 17.3327ZM9.0013 15.666C12.6832 15.666 15.668 12.6813 15.668 8.99935C15.668 5.31745 12.6832 2.33268 9.0013 2.33268C5.3194 2.33268 2.33464 5.31745 2.33464 8.99935C2.33464 12.6813 5.3194 15.666 9.0013 15.666ZM9.83463 8.99935H13.168V10.666H8.16797V4.83268H9.83463V8.99935Z" fill="black" fill-opacity="0.56"/>
</svg>
