<svg width="22" height="19" viewBox="0 0 22 19" fill="none" xmlns="http://www.w3.org/2000/svg">
<path d="M14.0039 0.00195312C16.213 0.00195312 18.0039 1.79281 18.0039 4.00195C18.0039 4.73098 17.8088 5.41446 17.4681 6.00306L22.0039 6.00195V8.00194H20.0039V18.0019C20.0039 18.5542 19.5562 19.0019 19.0039 19.0019H3.00391C2.45163 19.0019 2.00391 18.5542 2.00391 18.0019V8.00194H0.00390625V6.00195L4.53968 6.00306C4.19895 5.41446 4.00391 4.73098 4.00391 4.00195C4.00391 1.79281 5.79477 0.00195312 8.00391 0.00195312C9.19913 0.00195312 10.2719 0.526163 11.0048 1.35721C11.7359 0.526163 12.8087 0.00195312 14.0039 0.00195312ZM10.0039 8.00194H4.00391V17.0019H10.0039V8.00194ZM18.0039 8.00194H12.0039V17.0019H18.0039V8.00194ZM8.00391 2.00195C6.89934 2.00195 6.00391 2.89738 6.00391 4.00195C6.00391 5.05631 6.81979 5.92011 7.85465 5.99646L8.00391 6.00195H10.0039V4.00195C10.0039 3.0003 9.26763 2.17064 8.30669 2.02472L8.15318 2.00743L8.00391 2.00195ZM14.0039 2.00195C12.9495 2.00195 12.0857 2.81783 12.0094 3.85269L12.0039 4.00195V6.00195H14.0039C15.0582 6.00195 15.922 5.18607 15.9984 4.15121L16.0039 4.00195C16.0039 2.89738 15.1085 2.00195 14.0039 2.00195Z" fill="black"/>
</svg>
