<svg width="23" height="16" viewBox="0 0 23 16" fill="none" xmlns="http://www.w3.org/2000/svg">
<path d="M15.5 0C16.0523 0 16.5 0.44772 16.5 1V5.2L21.7133 1.55071C21.9395 1.39235 22.2513 1.44737 22.4096 1.6736C22.4684 1.75764 22.5 1.85774 22.5 1.96033V14.0397C22.5 14.3158 22.2761 14.5397 22 14.5397C21.8974 14.5397 21.7973 14.5081 21.7133 14.4493L16.5 10.8V15C16.5 15.5523 16.0523 16 15.5 16H1.5C0.94772 16 0.5 15.5523 0.5 15V1C0.5 0.44772 0.94772 0 1.5 0H15.5ZM14.5 2H2.5V14H14.5V2ZM7.5 4H9.5V7H12.5V9H9.499L9.5 12H7.5L7.499 9H4.5V7H7.5V4ZM20.5 4.84131L16.5 7.641V8.359L20.5 11.1587V4.84131Z" fill="black" fill-opacity="0.72"/>
</svg>
